<?xml version="1.0" encoding="utf-8"?>
<!-- Generator: Adobe Illustrator 15.0.0, SVG Export Plug-In . SVG Version: 6.00 Build 0)  -->
<!DOCTYPE svg PUBLIC "-//W3C//DTD SVG 1.1//EN" "http://www.w3.org/Graphics/SVG/1.1/DTD/svg11.dtd">
<svg version="1.1" id="Layer_1" xmlns="http://www.w3.org/2000/svg" xmlns:xlink="http://www.w3.org/1999/xlink" x="0px" y="0px"
	 width="400px" height="400px" viewBox="0 0 400 400" enable-background="new 0 0 400 400" xml:space="preserve">
<g>
	<g>
		<path fill="#F47822" d="M374.066,301.535c0,40.129-32.411,72.545-72.542,72.545H100.104c-40.131,0-72.544-32.416-72.544-72.545
			V99.34c0-40.131,32.413-72.543,72.544-72.543h201.421c40.131,0,72.542,32.412,72.542,72.543V301.535L374.066,301.535z"/>
	</g>
	<g>
		<path fill="#FFFFFF" d="M302.294,124.037c3.089-2.315,6.946-4.63,10.035-6.946c-1.545-5.403-4.63-10.033-7.72-14.663
			c-3.856,1.543-6.945,3.858-10.802,5.403c-2.315-1.545-4.63-3.86-7.72-5.403c0.773-3.858,1.545-8.488,2.316-12.347
			c-5.401-1.545-10.805-3.86-16.206-4.631c-1.545,3.859-2.315,7.716-3.86,11.576c-3.086,0-6.172,0.77-8.486,1.543
			c-2.316-3.088-4.631-6.944-6.946-10.033c-5.403,1.545-10.033,4.63-14.665,8.49c1.545,3.859,3.09,7.716,5.405,11.576
			c-2.315,2.314-3.86,4.63-5.405,6.944c-3.856-0.771-8.488-1.544-12.346-2.314c-1.544,5.401-3.089,10.805-4.631,16.206
			c3.857,1.544,7.717,3.085,11.576,3.858c0,3.087,0.771,6.175,0.771,9.262c-3.085,2.314-6.945,4.63-10.031,6.945
			c1.542,5.401,4.63,10.031,8.49,14.661c3.856-1.542,7.716-3.856,11.576-5.4c2.314,2.315,4.63,3.858,6.944,5.4
			c-0.773,3.859-1.543,8.49-2.314,12.35c5.401,2.315,10.803,3.086,16.206,3.856c0.771-3.856,2.315-7.716,3.856-11.575
			c3.089,0,6.175-0.771,9.262-0.771c2.314,3.087,4.632,6.945,6.947,10.032c5.401-2.315,10.031-4.631,13.891-8.487
			c-1.545-3.859-3.859-7.72-5.403-11.576c1.544-2.314,3.858-4.63,5.403-6.945c3.856,0.771,8.488,1.542,12.347,2.315
			c1.545-5.403,3.859-10.805,4.63-16.206c-3.858-0.773-7.715-2.315-11.575-3.86C303.839,130.208,303.067,127.122,302.294,124.037z
			 M285.317,134.838c0,10.034-10.805,16.979-20.065,13.895c-8.49-2.316-13.891-12.35-10.805-20.84
			c1.544-5.401,6.175-8.486,10.805-10.031C275.283,114.776,286.088,124.037,285.317,134.838z"/>
	</g>
	<g>
		<circle fill="#F36E24" cx="268.338" cy="133.296" r="23.151"/>
	</g>
	<g>
		<path fill="#FFFFFF" d="M200.429,289.186c18.521-0.77,30.867,12.35,45.531,20.066c21.606,11.576,42.444,9.26,58.649-10.031
			c7.72-9.262,11.576-18.521,11.576-28.557l0,0c0-9.26-3.856-19.291-10.803-27.781c-16.205-20.064-37.045-20.064-58.652-9.26
			c-7.717,3.859-14.661,10.031-23.151,13.891c-20.065,9.262-39.357,8.49-57.107-7.717c-17.751-16.979-23.925-36.271-13.119-58.653
			c3.858-7.719,9.26-15.435,13.119-23.151c12.347-22.381,14.662-44.761-6.175-62.512c-8.489-7.717-18.521-10.805-27.781-10.805l0,0
			c-9.261,0-19.295,3.859-28.556,10.805c-21.606,16.979-23.923,40.902-9.26,61.738c21.609,30.1,23.925,57.109,0.773,87.208
			c-14.665,19.293-14.665,41.674,3.856,59.424c9.26,9.26,19.295,13.119,29.326,13.119l0,0c10.033,0,20.836-3.859,30.871-10.033
			C172.644,298.447,184.222,287.645,200.429,289.186z"/>
	</g>
</g>
</svg>
